<?xml version="1.0" encoding="utf-8"?>
<!-- Generator: Adobe Illustrator 15.1.0, SVG Export Plug-In . SVG Version: 6.00 Build 0)  -->
<!DOCTYPE svg PUBLIC "-//W3C//DTD SVG 1.1//EN" "http://www.w3.org/Graphics/SVG/1.1/DTD/svg11.dtd">
<svg version="1.1" id="Layer_1" xmlns="http://www.w3.org/2000/svg" xmlns:xlink="http://www.w3.org/1999/xlink" x="0px" y="0px"
	 width="360px" height="144px" viewBox="0 0 360 144" enable-background="new 0 0 360 144" xml:space="preserve">
<g>
	<g>
		<path fill="#FFFFFF" d="M107.826,55.373c-0.016-10.487,5.873-12.978,15.781-12.988l17.62-0.01
			c9.898-0.005,15.796,2.459,15.802,12.962l0.011,10.693c0.011,10.488-5.88,12.973-15.789,12.986l-17.617,0.002
			c-9.892,0.013-15.789-2.456-15.802-12.952L107.826,55.373z M119.116,62.638c0.008,5.201,1.092,7.179,6.298,7.169l14.053-0.007
			c5.198-0.008,6.295-1.979,6.284-7.18l0.001-3.867c-0.012-4.45-1.104-7.176-6.889-7.166L125.986,51.6
			c-5.78,0.003-6.877,2.722-6.871,7.176L119.116,62.638z"/>
		<path fill="#FFFFFF" d="M162.755,42.75l10.983-0.01l0.012,20.687c0.012,4.557,1.647,6.346,6.146,6.339l10.892-0.007
			c4.506-0.006,6.14-1.787,6.137-6.349L196.9,42.724l10.986-0.015l0.021,23.081c0.008,8.899-4.587,13.174-14.684,13.174
			l-15.737,0.021c-10.112,0.01-14.719-4.253-14.72-13.167L162.755,42.75z"/>
		<path fill="#FFFFFF" d="M11.87,70.074l28.839-0.028c2.293,0.004,4.647,0.004,4.651-2.319c-0.01-3.086-1.285-2.813-15.282-2.812
			c-16.355,0.02-18.208-1.936-18.225-10.65c-0.013-6.415,0.58-11.361,14.287-11.379l28.888-0.017l0,8.982L26.833,51.88
			c-2.447,0.004-4.108-0.016-4.112,2.268c0.009,2.547,1.324,2.606,12.977,2.543c16.887-0.062,20.811,0.963,20.815,11.284
			c0.004,9.553-3.222,11.024-17.662,11.039L11.87,79.038L11.87,70.074z"/>
		<path fill="#FFFFFF" d="M250.748,42.669l-38.083,0.033l0.003,8.922l15.456-0.009l0.016,26.919l10.996-0.014l-0.025-26.914
			l7.936-0.013C248.007,48.49,249.267,45.517,250.748,42.669"/>
		<path fill="#FFFFFF" d="M106.073,42.794l-44.458,0.039l0.016,8.917l15.442-0.014l0.022,26.926l10.996-0.011l-0.027-26.925
			l14.521-0.022C102.923,47.701,104.12,44.828,106.073,42.794"/>
	</g>
	<g>
		<g>
			<path fill-rule="evenodd" clip-rule="evenodd" fill="#FFFFFF" d="M331.97,87.313c-0.017,4.866-4.015,8.808-8.914,8.786
				c-4.89-0.015-8.86-3.98-8.845-8.847l0.081-23.831l2.754,0.012l-0.081,23.829c-0.008,3.341,2.734,6.066,6.107,6.083
				c3.368,0.014,6.125-2.698,6.139-6.045l0.128-36.907l-0.003-0.748l-0.745-0.001l-10.846-0.039l-0.307,0.001l-0.22,0.215
				l-3.098,2.999l0.016-5.984l17.971,0.057L331.97,87.313z"/>
			<path fill="#E31B23" d="M323.188,91.177c2.19,0.015,3.97-1.744,3.979-3.909l0.068-20.393l-7.899-0.022l-0.104,20.392
				C319.228,89.406,321.003,91.175,323.188,91.177"/>
			<path fill-rule="evenodd" clip-rule="evenodd" fill="#FFFFFF" d="M306.625,49.849c-1.994-2.027-5.025-3.069-9.013-3.071
				l-30.49-0.112l-0.046,12.725l28.604,0.099h0.085l0.065,0.02c0.897,0.192,0.971,0.836,0.964,1.435l-0.004,3.459
				c0.001,0.322-0.027,0.58-0.083,0.756l-0.133,0.524l-0.538,0.033c-0.064,0.005-0.16,0.005-0.236,0.006l-18.191-0.063
				c-3.247,0.026-5.87,1.141-7.778,3.288c-1.858,2.106-2.801,4.819-2.811,8.074l-0.06,18.876l42.379,0.158l0.039-12.728
				l-28.976-0.104h-0.745l0.001-0.752l0.008-2.468c-0.002-0.4,0.027-0.695,0.091-0.89l0.155-0.497l0.529-0.027
				c0.045,0,0.105,0,0.15,0.002l17.944,0.06c3.938-0.032,6.926-1.423,8.887-4.104c1.315-1.824,2.006-3.746,2.006-5.715l0.035-10.563
				C309.508,54.626,308.547,51.8,306.625,49.849z M306.781,58.253l-0.04,10.579c0.002,1.395-0.479,2.758-1.495,4.13
				c-1.44,1.993-3.646,2.981-6.723,3.011l-17.919-0.069c-2.256-0.004-3.613,1.525-3.62,4.083l-0.022,5.909l28.981,0.098l0.75,0.003
				l-0.006,0.75l-0.027,5.865l0.004,0.748l-0.745-0.005l-35.522-0.128l-0.761-0.001l0.008-0.745l0.051-15.447
				c0.008-2.624,0.728-4.679,2.154-6.307c1.398-1.575,3.281-2.357,5.783-2.389l18.157,0.059c2.29,0.014,3.673-1.473,3.686-3.98
				l0.009-3.459c0.009-2.241-1.216-3.75-3.353-4.127l-0.126-0.02l-25.487-0.089l-0.75-0.006l-0.004-0.747l0.022-5.869l0.007-0.737
				l0.745-0.004l27.072,0.099c3.232,0.004,5.623,0.779,7.109,2.276C306.112,53.159,306.812,55.344,306.781,58.253z"/>
		</g>
		<path fill-rule="evenodd" clip-rule="evenodd" fill="none" stroke="#FFFFFF" stroke-width="1.0156" stroke-miterlimit="10" d="
			M347.309,71.132c0.133,26.382-21.156,47.878-47.54,48.005c-26.392,0.128-47.883-21.161-48.015-47.544
			c-0.127-26.389,21.162-47.881,47.549-48.009C325.69,23.458,347.182,44.744,347.309,71.132z"/>
	</g>
	<defs>
		<filter id="Adobe_OpacityMaskFilter" filterUnits="userSpaceOnUse" x="12.359" y="87.313" width="242.81" height="15.94">
			<feFlood  style="flood-color:white;flood-opacity:1" result="back"/>
			<feBlend  in="SourceGraphic" in2="back" mode="normal"/>
		</filter>
	</defs>
	<mask maskUnits="userSpaceOnUse" x="12.359" y="87.313" width="242.81" height="15.94" id="SVGID_1_">
		<g filter="url(#Adobe_OpacityMaskFilter)">
			<g enable-background="new    ">
			</g>
		</g>
	</mask>
	<g mask="url(#SVGID_1_)">
		<g>
			<defs>
				<polygon id="SVGID_2_" points="12.367,103.248 255.169,103.05 255.158,87.316 12.359,87.515 				"/>
			</defs>
			<clipPath id="SVGID_3_">
				<use xlink:href="#SVGID_2_"  overflow="visible"/>
			</clipPath>
			<g clip-path="url(#SVGID_3_)">
				<defs>
					<polygon id="SVGID_4_" points="12.367,103.248 255.169,103.05 255.158,87.316 12.359,87.515 					"/>
				</defs>
				<clipPath id="SVGID_5_">
					<use xlink:href="#SVGID_4_"  overflow="visible"/>
				</clipPath>
				<path clip-path="url(#SVGID_5_)" fill="#E31B23" d="M247.404,87.313L12.359,87.515l0.008,15.739l242.802-0.204
					C251.783,98.314,249.128,93.023,247.404,87.313"/>
			</g>
		</g>
	</g>
</g>
</svg>
